PathFileType	4	(X/Y/Z)	c:/Users/goper/Files/vsCode/490R/osim_files/C11/C11_Static02.trc
DataRate	CameraRate	NumFrames	NumMarkers	Units                	OrigDataRate	OrigDataStartFrame	OrigNumFrames
120.00	120.00	9	36	mm	120.0	612	978
                Frame#	Time	LPSI			LASI			LTH1			LTH2			LTH3			LTH4			LLFE			LMFE			LSH1			LSH2			LSH3			LSH4			LLMA			LMMA			LCAL			LMTP			LTOE			LMTP			RPSI			RASI			RTH1			RTH2			RTH3			RTH4			RLFE			RMFE			RSH1			RSH2			RSH3			RSH4			RLMA			RMMA			RCAL			RMTP			RTOE			RMTP		
		X1	Y1	Z1	X2	Y2	Z2	X3	Y3	Z3	X4	Y4	Z4	X5	Y5	Z5	X6	Y6	Z6	X7	Y7	Z7	X8	Y8	Z8	X9	Y9	Z9	X10	Y10	Z10	X11	Y11	Z11	X12	Y12	Z12	X13	Y13	Z13	X14	Y14	Z14	X15	Y15	Z15	X16	Y16	Z16	X17	Y17	Z17	X18	Y18	Z18	X19	Y19	Z19	X20	Y20	Z20	X21	Y21	Z21	X22	Y22	Z22	X23	Y23	Z23	X24	Y24	Z24	X25	Y25	Z25	X26	Y26	Z26	X27	Y27	Z27	X28	Y28	Z28	X29	Y29	Z29	X30	Y30	Z30	X31	Y31	Z31	X32	Y32	Z32	X33	Y33	Z33	X34	Y34	Z34	X35	Y35	Z35	X36	Y36	Z36

612	5.09167	-370.49338	1018.97009	490.44562	-185.14200	1006.06653	451.29507	-296.50433	600.57751	352.88095	-287.56717	553.94574	356.55933	-237.04268	607.92175	361.87549	-237.81517	561.24677	367.26273	-294.45981	515.00238	355.77493	-286.15927	503.15216	466.77585	-354.28333	411.15994	341.80301	-354.92834	366.57260	338.92581	-292.55237	406.06509	335.27600	-301.58878	362.10275	333.50381	-336.46405	94.76087	378.69031	-302.36166	110.31031	469.87540	-392.11136	58.59550	435.35779	-225.60457	39.84098	340.83084	-149.99278	57.04200	405.85797	-187.32907	44.91673	454.21887	-381.39545	1030.10864	574.91351	-237.18982	1001.72546	682.39307	-340.67810	604.10834	724.56799	-332.35501	561.00677	722.49432	-277.81155	608.61896	722.57849	-279.86737	565.62939	721.92371	-315.81113	520.15826	715.45984	-326.49106	492.73935	601.13055	-385.07129	412.15619	729.94946	-380.87381	366.33517	731.57568	-323.81842	410.49857	732.02917	-327.62393	363.95813	735.63525	-357.79572	97.42262	703.64862	-318.33521	105.96933	613.39783	-413.42505	59.70984	643.23340	-195.13599	49.16609	652.59314	-198.22008	61.80280	702.90375	-246.92490	39.34462	757.57642
613	5.10000	-370.46893	1019.02100	490.67062	-185.19341	1005.97992	451.07294	-296.86868	600.54871	352.81500	-287.88559	553.89618	356.54752	-237.36900	607.87933	361.69321	-238.16881	561.15204	367.08551	-294.77609	514.99048	355.69519	-285.57248	503.36496	467.03195	-354.51904	411.15231	341.76706	-355.15820	366.52924	338.91125	-292.80145	406.03680	335.22351	-301.82724	362.06097	333.45660	-336.47794	94.72671	378.68777	-302.27969	110.36102	469.84781	-392.11050	58.60163	435.34299	-225.59848	39.83807	340.83762	-149.99525	57.02740	405.84500	-187.33157	44.91248	454.18384	-381.18701	1030.20801	575.16003	-236.69604	1001.67200	682.25116	-340.34641	604.12457	724.67053	-332.08530	561.01807	722.59473	-277.42059	608.60107	722.52307	-279.56186	565.60034	721.86377	-315.54843	520.17786	715.48682	-326.50067	492.75406	601.20062	-384.93729	412.19452	730.02881	-380.68320	366.39465	731.63910	-324.84973	409.94806	731.52264	-327.43958	363.96741	735.64624	-357.75772	97.46212	703.66791	-318.33151	105.95292	613.40997	-413.40530	59.75043	643.22913	-195.13118	49.13484	652.57831	-198.19426	61.79905	702.86163	-246.87427	39.32699	757.55432
614	5.10833	-370.43408	1019.07556	490.86279	-185.22871	1005.90015	450.85980	-297.25305	600.56006	352.73459	-288.15402	553.86884	356.47528	-237.64034	607.85571	361.52112	-238.50404	561.11487	366.93674	-295.03705	514.97546	355.61880	-286.47726	502.98434	466.96103	-354.78683	411.14484	341.74448	-355.38831	366.51978	338.88376	-293.01407	406.05008	335.17618	-302.05609	362.04715	333.43231	-336.45853	94.72180	378.68054	-302.28250	110.35183	469.84674	-392.09503	58.59964	435.32507	-225.58627	39.84294	340.83612	-149.97812	57.02675	405.82690	-187.32050	44.88948	454.19626	-381.03305	1030.31677	575.37732	-236.22820	1001.59741	682.13867	-339.99237	604.11633	724.78412	-331.81985	561.03333	722.66925	-277.09830	608.56921	722.46179	-279.25998	565.55420	721.83319	-315.29724	520.15930	715.51941	-326.44144	492.78171	601.23865	-384.81647	412.21542	730.12006	-380.54422	366.40436	731.70966	-324.68839	409.91965	731.57477	-327.32578	363.95227	735.65723	-357.77365	97.47997	703.67352	-318.31226	105.95995	613.41577	-413.40622	59.77255	643.24329	-195.13138	49.10857	652.57245	-198.19218	61.77066	702.86749	-246.87230	39.31094	757.56543
615	5.11667	-370.37094	1019.17871	491.04016	-185.25533	1005.82660	450.68246	-297.54648	600.59332	352.65475	-288.42340	553.89539	356.37772	-237.87941	607.86694	361.35822	-238.76329	561.13763	366.79050	-295.25909	515.02502	355.55737	-285.88181	503.32071	466.88129	-354.99277	411.15933	341.74414	-355.62469	366.52002	338.89120	-293.21500	406.11029	335.15714	-302.22183	362.07031	333.40659	-336.44662	94.78050	378.68588	-302.26215	110.36929	469.85251	-392.06534	58.62413	435.34952	-225.58159	39.96102	340.75989	-149.97047	57.02246	405.84296	-187.30452	44.89950	454.21039	-380.83481	1030.43616	575.57220	-235.82932	1001.54120	682.03094	-339.37500	604.18781	724.88293	-331.54434	561.07965	722.75714	-276.82999	608.56671	722.44586	-278.98203	565.50000	721.78760	-315.02002	520.16357	715.54047	-326.36108	492.85834	601.23132	-384.64801	412.22833	730.21320	-380.38608	366.41711	731.78760	-324.59457	409.87570	731.59540	-327.17664	363.93774	735.69299	-357.72433	97.49551	703.68683	-318.27255	105.99968	613.41852	-413.38126	59.79723	643.26575	-195.10349	49.13709	652.59912	-198.20338	61.76867	702.89575	-246.85587	39.33979	757.57562
616	5.12500	-370.36911	1019.27692	491.20325	-185.30513	1005.75000	450.49591	-297.77203	600.64398	352.57947	-288.70059	553.92773	356.28000	-238.15594	607.86865	361.22061	-238.97929	561.14966	366.65063	-295.44611	515.07141	355.50250	-286.01492	503.31482	466.83185	-355.21649	411.19019	341.72565	-355.80716	366.52325	338.89328	-293.42749	406.16092	335.12897	-302.36523	362.10715	333.38589	-336.40393	94.82864	378.68387	-302.22949	110.35883	469.86517	-392.05673	58.63772	435.41684	-225.55862	39.96214	340.75809	-149.97366	57.00573	405.88242	-187.31152	44.87560	454.23941	-380.59418	1030.50842	575.77234	-235.41199	1001.44977	681.94037	-339.06256	604.17352	724.95844	-331.20126	561.09100	722.84521	-276.54446	608.50336	722.43268	-278.73737	565.43250	721.77051	-314.71597	520.15540	715.59753	-326.23730	492.89890	601.22467	-384.45566	412.22864	730.31030	-380.15955	366.42056	731.89319	-324.40186	409.81827	731.66608	-327.04126	363.89758	735.73828	-357.67917	97.49260	703.73029	-318.23944	106.04494	613.39551	-412.98059	59.87939	643.02661	-195.07713	49.11957	652.64270	-198.20027	61.75904	702.93256	-246.83034	39.37108	757.59857
617	5.13333	-370.31451	1019.35651	491.34412	-185.30051	1005.69257	450.30600	-297.96594	600.64752	352.51392	-288.98151	553.95081	356.19034	-238.36836	607.83661	361.09601	-239.20125	561.10980	366.55286	-295.63910	515.12317	355.44000	-286.14920	503.30804	466.80930	-355.42078	411.23120	341.72397	-355.97583	366.50845	338.90686	-293.60706	406.17868	335.13538	-302.53574	362.08850	333.37201	-336.41174	94.87306	378.65753	-302.19592	110.37556	469.84131	-392.03586	58.63930	435.43240	-225.53235	39.97699	340.74136	-149.97894	56.99999	405.87030	-187.32787	44.86640	454.23828	-380.37625	1030.57764	575.98743	-234.97295	1001.40582	681.83124	-338.77243	604.16223	724.99304	-330.92325	561.10284	722.87103	-276.25525	608.46552	722.38080	-278.53247	565.37384	721.72296	-314.51468	520.15033	715.60590	-326.12042	492.95609	601.19452	-384.32404	412.24533	730.35535	-380.07657	366.47183	731.98383	-324.24759	409.82260	731.68079	-326.91296	363.85681	735.75208	-357.66064	97.50823	703.74774	-318.23990	106.07850	613.38782	-412.98703	59.87223	643.00885	-195.07925	49.11475	652.63153	-198.23222	61.72965	702.93683	-246.81926	39.39592	757.59631
618	5.14167	-370.21387	1019.40845	491.48630	-185.26555	1005.69989	450.07599	-298.09949	600.65436	352.47879	-289.15887	553.96179	356.13297	-238.54218	607.81427	361.00665	-239.38295	561.08575	366.45898	-295.78433	515.14478	355.39807	-286.19846	503.33670	466.78180	-355.93582	411.09842	341.88287	-356.11609	366.48776	338.89310	-293.77435	406.17523	335.10077	-302.68124	362.09576	333.36484	-336.39105	94.88586	378.62274	-302.17313	110.44935	469.80386	-392.06036	58.71255	435.37772	-225.52843	40.02486	340.70581	-149.99722	57.02577	405.84296	-187.31906	44.90850	454.19083	-380.11792	1030.66394	576.17719	-234.49228	1001.38452	681.71436	-338.53479	604.21478	724.96991	-330.66245	561.16321	722.85638	-275.98508	608.46338	722.33643	-278.29187	565.39349	721.66321	-314.29456	520.21320	715.57745	-326.00040	493.00659	601.18140	-384.17874	412.30487	730.38074	-379.86551	366.52786	731.92432	-324.02838	409.90250	731.67566	-326.78989	363.90048	735.72388	-357.61115	97.59726	703.73077	-318.21686	106.09834	613.35809	-412.95618	59.89427	642.99066	-195.08708	49.14500	652.59338	-198.19972	61.76799	702.91217	-246.79802	39.45224	757.57159
619	5.15000	-370.12271	1019.44147	491.58774	-185.19127	1005.69781	449.85458	-298.08664	600.55493	352.41730	-289.29706	553.94037	356.10492	-238.66850	607.79645	360.91461	-239.50647	561.08130	366.40173	-295.90317	515.14661	355.37738	-286.92285	503.10471	466.78244	-355.63300	411.24750	341.68124	-356.20792	366.47998	338.90643	-293.91992	406.17142	335.09232	-302.82184	362.10898	333.35840	-336.38507	94.87799	378.61905	-302.13391	110.54021	469.77386	-392.04932	58.73510	435.29303	-225.49078	39.94662	340.77014	-149.98129	57.05283	405.79465	-187.30287	44.96535	454.15891	-379.85284	1030.73059	576.38208	-234.01564	1001.37500	681.60339	-338.62894	604.18896	724.95654	-330.42566	561.20831	722.85052	-275.69775	608.49615	722.28436	-278.01367	565.44281	721.59564	-314.13510	520.24811	715.56366	-325.89413	493.03165	601.19269	-384.04858	412.39267	730.36896	-379.78143	366.62186	731.90393	-323.70865	410.05731	731.66980	-326.60089	363.98065	735.69385	-357.64297	97.65780	703.67871	-318.22723	106.08855	613.35815	-413.31528	59.86977	643.16663	-195.10556	49.16477	652.55151	-198.16765	61.79656	702.85425	-246.77948	39.48808	757.52448
620	5.15833	-369.98535	1019.46271	491.75726	-185.19302	1005.64233	449.66751	-298.26715	600.63599	352.47440	-289.36606	553.93085	356.10876	-238.74799	607.78271	360.84494	-239.56935	561.09137	366.34665	-295.99176	515.14313	355.38553	-286.95145	503.12970	466.77228	-355.75378	411.26871	341.72647	-356.25854	366.49219	338.90390	-294.00876	406.19446	335.08313	-302.87894	362.16562	333.35025	-336.36819	94.87233	378.62869	-302.15442	110.54428	469.80276	-392.04010	58.74679	435.28839	-225.51184	39.96347	340.78546	-149.96848	57.06543	405.80005	-187.32687	44.97491	454.15829	-379.54999	1030.81470	576.56903	-233.59055	1001.37463	681.52545	-338.38504	604.23663	724.99500	-330.20398	561.25275	722.86444	-275.47296	608.50922	722.26794	-277.81238	565.45093	721.58435	-313.96799	520.28278	715.58386	-325.75922	493.07306	601.23444	-383.89551	412.44131	730.40302	-379.68387	366.64743	731.93097	-323.55865	410.08633	731.66052	-326.46326	363.98370	735.71771	-357.63831	97.68479	703.68988	-318.21579	106.10159	613.36719	-413.32809	59.92741	643.19257	-195.10870	49.17137	652.54333	-198.16554	61.81022	702.82739	-246.79523	39.46291	757.52344
